<svg width="1266" height="152" viewBox="0 0 1266 152" fill="none" xmlns="http://www.w3.org/2000/svg">
<path d="M1039.17 148.598H1077.51L1093.1 37.2905H1096.33L1120.49 148.598H1165.02L1218.67 37.2905H1221.48L1206.03 148.598H1245.77L1266 3.40516H1199.28L1148.44 108.472L1125.54 3.40516H1059.39L1039.16 148.598H1039.17ZM945.346 152C997.594 152 1021.05 138.813 1025.12 106.059C1028.63 77.4161 1013.46 63.9469 976.665 60.5447L939.585 57.1425C925.681 55.8659 921.747 52.8883 922.029 46.3659C922.449 35.4469 933.545 30.9106 957.565 30.9106C981.585 30.9106 989.448 35.4469 989.027 49.0586H1029.48C1033.69 14.4608 1013.47 0 960.655 0C907.846 0 886.217 13.7542 882.141 46.0809C878.771 72.8798 891.833 86.2066 927.787 89.6117L967.534 93.2989C980.455 94.433 985.652 98.1202 984.387 106.486C982.981 116.696 973.433 121.089 948.01 121.089C921.323 121.089 912.336 116.126 913.46 102.514H872.586C868.513 137.112 890.001 152 945.34 152H945.346ZM805.738 148.598H846.89L867.117 3.40516H825.964L805.738 148.598ZM505.73 148.598H546.883L567.106 3.40219H525.954L505.727 148.595L505.73 148.598ZM392.383 148.598H433.536L448.845 38.852H503.34L508.257 3.40516H355.162L350.245 38.852H407.689L392.38 148.598H392.383ZM227.211 77.7011L232.969 36.0139H275.665C292.239 36.0139 298.559 42.5363 296.733 56.8575C294.765 71.4608 286.34 77.7011 267.94 77.7011H227.208H227.211ZM177.492 148.598H217.239L222.576 110.313H270.049C311.483 110.313 332.269 94.2905 337.327 57.8491C342.382 21.5502 324.405 3.40219 282.97 3.40219H197.715L177.489 148.595L177.492 148.598ZM77.9102 117.263C48.697 117.263 37.7398 105.21 41.6745 77.137C45.8886 47.218 60.7775 34.7403 91.3934 34.7403C122.009 34.7403 131.423 46.7934 127.491 74.8659C123.277 104.357 108.953 117.263 77.9102 117.263ZM75.1018 152C131.846 152 160.777 128.746 167.941 77.1341C175.104 25.5223 150.946 0 94.2018 0C37.4575 0 8.38546 23.2542 1.22184 74.8659C-5.94177 126.478 18.3575 152 75.0988 152H75.1018ZM573.006 148.598H611.35L626.938 37.2905H630.17L654.328 148.598H698.851L752.505 37.2905H755.313L739.862 148.598H779.609L799.836 3.40516H733.119L682.274 108.472L659.381 3.40516H593.226L573 148.598H573.006Z" fill="#FF0421"/>
</svg>
