<svg width="1856" height="153" viewBox="0 0 1856 153" fill="none" xmlns="http://www.w3.org/2000/svg">
<path d="M1053.03 148.598H1091.88L1107.68 37.2905H1110.95L1135.43 148.598H1180.55L1234.92 37.2905H1237.76L1222.11 148.598H1262.38L1282.88 3.40516H1215.27L1163.75 108.472L1140.55 3.40516H1073.52L1053.02 148.598H1053.03ZM957.951 152C1010.9 152 1034.66 138.813 1038.79 106.059C1042.35 77.4161 1026.98 63.9469 989.687 60.5447L952.113 57.1425C938.024 55.8659 934.037 52.8883 934.323 46.3659C934.749 35.4469 945.992 30.9106 970.332 30.9106C994.672 30.9106 1002.64 35.4469 1002.21 49.0586H1043.2C1047.47 14.4608 1026.98 0 973.464 0C919.95 0 898.033 13.7542 893.903 46.0809C890.488 72.8798 903.725 86.2066 940.157 89.6117L980.434 93.2989C993.528 94.433 998.794 98.1202 997.512 106.486C996.088 116.696 986.412 121.089 960.65 121.089C933.607 121.089 924.501 116.126 925.639 102.514H884.221C880.094 137.112 901.868 152 957.945 152H957.951ZM816.481 148.598H858.182L878.678 3.40516H836.977L816.481 148.598ZM512.474 148.598H554.175L574.668 3.40219H532.967L512.471 148.595L512.474 148.598ZM397.615 148.598H439.316L454.83 38.852H510.051L515.033 3.40516H359.898L354.915 38.852H413.125L397.612 148.598H397.615ZM230.241 77.7011L236.075 36.0139H279.341C296.136 36.0139 302.54 42.5363 300.689 56.8575C298.696 71.4608 290.158 77.7011 271.513 77.7011H230.238H230.241ZM179.859 148.598H220.136L225.544 110.313H273.649C315.637 110.313 336.699 94.2905 341.824 57.8491C346.947 21.5502 328.73 3.40219 286.743 3.40219H200.352L179.856 148.595L179.859 148.598ZM78.949 117.263C49.3463 117.263 38.243 105.21 42.2302 77.137C46.5004 47.218 61.5879 34.7403 92.612 34.7403C123.636 34.7403 133.175 46.7934 129.191 74.8659C124.921 104.357 110.405 117.263 78.949 117.263ZM76.1032 152C133.604 152 162.921 128.746 170.18 77.1341C177.439 25.5223 152.959 0 95.4579 0C37.9569 0 8.49727 23.2542 1.23814 74.8659C-6.021 126.478 18.6022 152 76.1002 152H76.1032ZM580.646 148.598H619.501L635.298 37.2905H638.573L663.053 148.598H708.169L762.538 37.2905H765.384L749.727 148.598H790.004L810.5 3.40516H742.894L691.371 108.472L668.172 3.40516H601.136L580.64 148.598H580.646Z" fill="#FAFAF9"/>
<path d="M1493.07 76.04C1493.07 121.901 1467.02 149 1422.2 149H1371.13V3.07998H1422.2C1467.02 3.07998 1493.07 30.1794 1493.07 76.04ZM1391.97 20.7988V131.281H1420.11C1454.51 131.281 1472.23 110.435 1472.23 76.04C1472.23 41.6446 1454.51 20.7988 1420.11 20.7988H1391.97ZM1511.14 94.8011C1511.14 62.4903 1533.03 37.4754 1566.38 37.4754C1599.74 37.4754 1621.63 62.4903 1621.63 94.8011C1621.63 127.112 1599.74 152.127 1566.38 152.127C1533.03 152.127 1511.14 127.112 1511.14 94.8011ZM1601.61 94.8011C1601.61 72.9131 1589.31 54.152 1566.38 54.152C1543.45 54.152 1531.16 72.9131 1531.16 94.8011C1531.16 116.689 1543.45 135.45 1566.38 135.45C1589.31 135.45 1601.61 116.689 1601.61 94.8011ZM1719.67 118.774H1740.73C1734.68 138.786 1718.42 152.127 1692.78 152.127C1658.39 152.127 1638.58 127.112 1638.58 94.8011C1638.58 62.4903 1658.39 37.4754 1692.78 37.4754C1717.17 37.4754 1732.6 49.9828 1739.69 68.744H1718.01C1714.25 60.4057 1705.92 54.152 1692.78 54.152C1668.81 54.152 1658.6 72.9131 1658.6 94.8011C1658.6 116.689 1668.81 135.45 1692.78 135.45C1707.17 135.45 1715.5 128.78 1719.67 118.774ZM1804.64 104.599L1794.84 103.139C1772.54 99.8041 1756.28 90.2151 1756.28 69.3694C1756.28 50.8167 1772.12 37.4754 1801.1 37.4754C1830.91 37.4754 1844.04 53.9435 1844.87 68.744H1825.28C1824.86 59.3634 1816.73 52.6928 1800.68 52.6928C1783.38 52.6928 1776.08 59.3634 1776.08 67.7017C1776.08 78.333 1784.63 81.6683 1798.39 83.7529L1808.39 85.2121C1829.86 88.339 1846.96 95.4265 1846.96 118.774C1846.96 138.786 1830.07 152.127 1801.1 152.127C1771.29 152.127 1754.82 137.952 1754.19 118.774H1774.41C1774.83 131.073 1784.63 136.701 1801.1 136.701C1818.19 136.701 1827.15 130.447 1827.15 120.441C1827.15 108.976 1817.77 106.475 1804.64 104.599Z" fill="#FAFAF9"/>
</svg>
